<svg width="21" height="16" viewBox="0 0 21 16" fill="none" xmlns="http://www.w3.org/2000/svg">
<path d="M17.6574 1.46302C16.3827 0.878117 15.0157 0.447187 13.5865 0.200376C13.5604 0.195613 13.5344 0.207517 13.521 0.231325C13.3452 0.544004 13.1505 0.95192 13.0141 1.27254C11.4769 1.0424 9.94755 1.0424 8.44183 1.27254C8.30544 0.944793 8.10363 0.544004 7.92704 0.231325C7.91363 0.208311 7.88763 0.196407 7.8616 0.200376C6.43315 0.446399 5.0662 0.877328 3.79068 1.46302C3.77963 1.46778 3.77017 1.47572 3.76389 1.48603C1.17106 5.35967 0.460771 9.13809 0.809213 12.8697C0.810789 12.8879 0.821037 12.9054 0.835228 12.9165C2.5459 14.1728 4.20299 14.9354 5.8293 15.441C5.85532 15.4489 5.8829 15.4394 5.89946 15.4179C6.28417 14.8926 6.6271 14.3387 6.92113 13.7561C6.93848 13.722 6.92191 13.6815 6.88645 13.668C6.34251 13.4617 5.82456 13.2101 5.32634 12.9244C5.28693 12.9014 5.28377 12.845 5.32003 12.8181C5.42487 12.7395 5.52975 12.6578 5.62986 12.5752C5.64797 12.5601 5.67321 12.557 5.69451 12.5665C8.96763 14.0609 12.5112 14.0609 15.7457 12.5665C15.767 12.5562 15.7922 12.5594 15.8111 12.5744C15.9113 12.657 16.0161 12.7395 16.1217 12.8181C16.158 12.845 16.1556 12.9014 16.1162 12.9244C15.618 13.2157 15.1001 13.4617 14.5553 13.6672C14.5199 13.6807 14.5041 13.722 14.5214 13.7561C14.8218 14.3378 15.1647 14.8918 15.5423 15.4172C15.5581 15.4394 15.5865 15.4489 15.6125 15.441C17.2467 14.9354 18.9037 14.1728 20.6144 12.9165C20.6294 12.9054 20.6389 12.8887 20.6404 12.8705C21.0575 8.55634 19.942 4.80891 17.6834 1.48682C17.6779 1.47572 17.6685 1.46778 17.6574 1.46302ZM7.40992 10.5975C6.42448 10.5975 5.61251 9.69282 5.61251 8.58175C5.61251 7.47068 6.40873 6.56598 7.40992 6.56598C8.41896 6.56598 9.22307 7.47862 9.2073 8.58175C9.2073 9.69282 8.41107 10.5975 7.40992 10.5975ZM14.0555 10.5975C13.0701 10.5975 12.2581 9.69282 12.2581 8.58175C12.2581 7.47068 13.0543 6.56598 14.0555 6.56598C15.0646 6.56598 15.8687 7.47862 15.8529 8.58175C15.8529 9.69282 15.0646 10.5975 14.0555 10.5975Z" fill="white"/>
</svg>
